<svg xmlns="http://www.w3.org/2000/svg" xmlns:xlink="http://www.w3.org/1999/xlink" width="1000" height="1000" viewBox="0 0 1000 1000" xml:space="preserve"> <desc>Created with Fabric.js 3.5.0</desc> <defs> </defs> <rect x="0" y="0" width="100%" height="100%" fill="#ffffff"></rect> <g transform="matrix(0.9127 0 0 1.0576 503.8748 201.6402)" id="svg_2"> <path style="stroke: none; stroke-width: 1; stroke-dasharray: none; stroke-linecap: butt; stroke-dashoffset: 0; stroke-linejoin: miter; stroke-miterlimit: 4; is-custom-font: none; font-file-url: none; fill: rgb(167,0,0); fill-rule: nonzero; opacity: 1;" transform=" translate(-603.1908, -288.5827)" d="m 813.50001 150.69998 c -42 3.6 -83.2 18.8 -118.7 43.6 c -31.2 21.8 -51.2 42.7 -78.2 81.7 c -5.2 7.4 -10.7 15.6 -12.2 18.2 c -1.6 2.6 -3.6 4.7 -4.4 4.8 c -0.8 0 -3.3 -2.8 -5.5 -6.2 c -11.1 -17.3 -30.8 -42.3 -46.6 -59.2 c -27.8 -29.9 -71.8 -56.3 -113 -68.1 c -40.6 -11.6 -81 -12.2 -122.9 -1.9 c -49 12.1 -96.8 43.6 -131.7 86.9 c -14.1 17.6 -39.2 55.3 -41.9 63.1 c -0.4 1 5.8 -4.5 13.7 -12.3 c 7.9 -7.8 18.5 -17.6 23.4 -21.8 c 31.7 -27 72.9 -45.3 117.5 -52.2 c 16.1 -2.5 57.8 -2.5 73.4 0 c 52.5 8.4 94.2 27.3 130.4 59 c 20.9 18.4 36 37.9 75.9 97.7 c 10.5 15.7 21.3 31.8 24 35.7 l 5 7.3 l 21.4 -33.8 c 42.2 -66.9 53.8 -83.1 73.9 -103.3 c 18.2 -18.3 33.2 -29.6 55.1 -41.2 c 25.6 -13.7 49 -21.4 80.9 -26.8 c 11.7 -2 17 -2.3 40 -2.3 c 23 0 28.1 0.3 39 2.3 c 30.1 5.4 53.5 13.3 77.5 26.3 c 21.1 11.5 40.3 26.6 65.8 51.7 c 7 6.9 12.7 12.2 12.7 11.7 c 0 -0.5 -4.1 -7.7 -9.1 -16 c -36.9 -60.9 -71.3 -95.4 -119.9 -120 c -26.8 -13.6 -48.9 -20.4 -79 -24.2 c -10.2 -1.2 -35.6 -1.7 -46.5 -0.7 z" stroke-linecap="round"></path> </g> <g transform="matrix(0.8333 0 0 0.8333 256.8706 569.071)" id="svg_3"> <path style="stroke: rgb(68,68,68); stroke-width: 0; stroke-dasharray: none; stroke-linecap: butt; stroke-dashoffset: 0; stroke-linejoin: miter; stroke-miterlimit: 4; is-custom-font: none; font-file-url: none; fill: rgb(235,15,40); fill-rule: nonzero; opacity: 1;" transform=" translate(-308.2552, -682.9)" d="m 82.4 320.09999 c -27 53.7 -39.7 122.4 -33.9 183.5 c 4.9 50.9 16.5 90.4 37.5 127 c 39.9 69.8 122.7 158.3 255.1 272.4 c 29.1 25.2 35.9 30.8 81.4 67.5 c 38.9 31.3 105.5 82.5 107.4 82.5 c 0.6 0 1.1 -0.2 1.1 -0.5 c 0 -0.3 2.9 -9.8 6.4 -21.2 c 15.6 -50.8 25.9 -102.1 30.3 -150.4 c 2 -22.5 2.3 -69.2 0.5 -90.4 c -2.1 -25.6 -6.9 -56.5 -13.8 -90 c -17.9 -86.4 -52.8 -159 -104.8 -218.2 c -11.4 -12.9 -33.2 -34.3 -35.1 -34.3 c -2.4 0 -7.7 4.3 -9 7.4 c -2.8 6.6 -4.8 22.7 -4.7 37.6 c 0.1 21.8 3.9 41.9 18.1 94.3 c 7.5 27.8 11 48 11.2 64.7 c 0.2 17.7 -7.7 29.4 -23.4 34.6 c -17 5.6 -77.1 -7.3 -119.6 -25.8 c -82.7 -36 -144.9 -101.1 -167.2 -175.3 c -8 -26.6 -10.2 -46.5 -10.5 -95 c -0.2 -46 1.1 -40.6 -16.8 -67.9 l -6.5 -9.8 l -3.7 7.3 z" stroke-linecap="round"></path> </g> <g transform="matrix(0.8333 0 0 0.8333 745.7424 569.8938)" id="svg_4"> <path style="stroke: rgb(68,68,68); stroke-width: 0; stroke-dasharray: none; stroke-linecap: butt; stroke-dashoffset: 0; stroke-linejoin: miter; stroke-miterlimit: 4; is-custom-font: none; font-file-url: none; fill: rgb(235,15,40); fill-rule: nonzero; opacity: 1;" transform=" translate(-894.9013, -683.8873)" d="m 1111.10002 318.89999 c -5.7 8.2 -11.7 21.1 -14 30.3 c -3.3 12.8 -4.1 25.8 -3.9 58.3 c 0.2 21.1 -0.2 33.7 -1 39.5 c -1.5 9.6 -8.1 35.6 -12 47 c -3.3 9.9 -14.2 33.6 -19.4 42.5 c -43.6 74.2 -124 128.6 -217.3 146.9 c -36.6 7.2 -50.1 6.1 -61 -4.8 c -14.1 -14.1 -13.3 -31.4 4.4 -101.7 c 4.9 -19.5 9.8 -40.4 11 -46.4 c 4.3 -23.6 5.2 -45.2 2.6 -63 c -1.6 -11 -4.4 -23.5 -5.2 -23.5 c -1.4 0 -16 12.6 -27.2 23.5 c -30.8 29.9 -56.2 65.5 -77.1 108 c -23 46.9 -37.4 93.5 -47.9 155 c -7.6 44.3 -9.5 65.1 -9.4 101 c 0.1 51.7 5.4 95.3 18.2 150.3 c 3.8 15.9 14.9 55.7 18.8 67.1 l 1.9 5.3 l 21 -15.8 c 163.1 -123 314.2 -260.3 381.20001 -346.30001 c 51.4 -66 69 -105.6 78.7 -177.4 c 6.7 -49.7 0.3 -108.3 -17.1 -156.5 c -6.3 -17.4 -18 -43.2 -20.2 -44.6 c -0.5 -0.3 -2.8 2.1 -5.1 5.3 z" stroke-linecap="round"></path> </g> </svg>